<svg class="icon" viewBox="0 0 1024 1024" xmlns="http://www.w3.org/2000/svg" width="200" height="200"><defs><style/></defs><path d="M453.887 476.553h332.431v51.743H453.887v-51.743zM453.887 663.717h332.431v51.776H453.887v-51.776zM400.917 465.07l-36.642-36.64-52.895 52.892-34.198-34.198-36.636 36.645 70.834 70.832zM400.917 652.215l-36.642-36.637-52.89 52.893-34.203-34.2-36.636 36.64 70.834 70.846z"/><path d="M891.44 177.159H786.327V46.153h-51.744V177.16h-191.5V46.153h-51.738V177.16H299.85V46.153h-51.745V177.16h-86.366c-45.222 0-82.014 36.79-82.014 82.013V857.95c0 45.22 36.792 82.01 82.014 82.01h729.743c45.222 0 82.014-36.789 82.014-82.01V259.17c0-45.221-36.792-82.011-82.056-82.011zm-759.997 82.097c0-16.682 13.572-30.254 30.254-30.254h86.346v93.529h51.75V229h191.493v93.53h51.747V229h191.495v93.53h51.744V229h105.11c16.683 0 30.255 13.573 30.255 30.255v598.786l.014 1.688c-.877 15.9-14.091 28.566-30.208 28.566H161.697c-16.682 0-30.254-13.572-30.254-30.254V259.256z"/></svg>