<svg class="icon" width="200" height="200" viewBox="0 0 1024 1024" xmlns="http://www.w3.org/2000/svg"><path d="M449.5 893.6H160.7c-18 0-32.1-14.8-32.1-32.1v-706c0-18 14.1-32.1 32.1-32.1h641.8c17.3 0 32.1 14.1 32.1 32.1v288.8c0 17.7 14.4 32.1 32.1 32.1 17.7 0 32.1-14.4 32.1-32.1V123.4c0-35.3-28.9-64.2-64.2-64.2h-706c-35.3 0-64.2 28.9-64.2 64.2v770.2c0 35.3 28.9 64.2 64.2 64.2h320.9c17.7 0 32.1-14.4 32.1-32.1 0-17.7-14.3-32.1-32.1-32.1zm498.6 5.8L864.7 816c-6.4-6.4-12.8-6.4-19.3-6.4-19.3 0-32.1 12.8-32.1 32.1 0 6.4 0 12.8 6.4 19.3l83.4 83.4c6.4 6.4 12.8 12.8 25.7 12.8 19.3 0 32.1-12.8 32.1-32.1.1-6.4-6.4-19.2-12.8-25.7zm0 0"/><path d="M697.3 507.1c-106.3 0-192.5 86.2-192.5 192.6 0 106.3 86.2 192.6 192.5 192.6S889.9 806 889.9 699.6c0-106.3-86.2-192.5-192.6-192.5zm0 320.9c-46.5 1.1-90-23.2-113.6-63.3-23.6-40.1-23.6-89.9 0-130 23.6-40.1 67-64.4 113.5-63.4 69.8 1.5 125.5 58.5 125.5 128.3.1 69.8-55.6 126.8-125.4 128.4zm32.6-512.7H215.4c-17.4 0-31.5-14.2-31.6-31.6v-1c0-17.4 14.2-31.6 31.6-31.6h514.5c17.4 0 31.6 14.2 31.6 31.6v1c0 17.3-14.3 31.6-31.6 31.6zm-2.1 128.4H213.4c-17.4 0-31.5-14.2-31.6-31.6v-1c0-17.4 14.2-31.6 31.6-31.6h514.5c17.4 0 31.6 14.2 31.6 31.6v1c0 17.3-14.3 31.6-31.7 31.6zm-319.2 128H215.1c-17.4 0-31.5-14.2-31.6-31.6v-1c0-17.4 14.2-31.6 31.6-31.6h193.5c17.4 0 31.6 14.2 31.6 31.6v1c-.1 17.5-14.2 31.6-31.6 31.6zm0 0"/></svg>