<?xml version="1.0" standalone="no"?><!DOCTYPE svg PUBLIC "-//W3C//DTD SVG 1.1//EN" "http://www.w3.org/Graphics/SVG/1.1/DTD/svg11.dtd"><svg class="icon" width="200px" height="200.00px" viewBox="0 0 1024 1024" version="1.1" xmlns="http://www.w3.org/2000/svg"><path d="M77.109248 859.63264M266.819584 560.089088c0-56.582144 54.222848-50.122752 107.455488-43.742208 26.169344 3.130368 51.622912 10.88512 68.456448 18.541568 14.55616 6.617088 29.012992 14.74048 42.79808 21.871616-33.283072 39.46496-62.707712 72.073216-111.254528 80.830464-9.459712 1.703936-19.494912 2.356224-30.430208 1.89952C308.660224 638.03392 266.819584 603.357184 266.819584 560.089088zM232.58624 579.581952c1.431552 76.073984 74.128384 99.382272 141.688832 93.667328 28.017664-2.366464 53.435392-9.132032 74.167296-19.504128 28.715008-14.354432 51.346432-34.233344 85.579776-68.465664 18.542592 9.995264 52.174848 30.696448 89.872384 49.447936 73.088 36.402176 104.59136 51.83488 168.30464-18.535424-1.432576 0-15.729664 1.250304-29.478912-0.949248-54.719488-8.735744-63.210496-17.652736-123.610112-41.375744-28.040192-10.995712-53.732352-21.861376-68.468736-28.992512 64.185344-77.976576 105.074688-161.183744 105.074688-163.084288l-122.676224 0.951296 0-75.123712L707.566592 307.617792l0-26.151936L553.039872 281.465856l0-78.449664-41.365504 1.425408c-17.10592 0.594944-26.077184 2.456576-30.430208 6.180864-2.30912 1.98144-3.803136 4.28032-4.28032 6.657024l0 64.186368L374.275072 281.465856l-47.551488 0 0 26.151936 47.551488 0 102.689792 0 0 75.123712L374.275072 382.741504l-5.230592 0 0 25.197568 5.230592 0 209.195008 0c-13.307904 24.250368-32.325632 74.172416-68.942848 117.439488-9.979904-3.802112-25.551872-10.735616-33.758208-14.263296-26.027008-11.2128-66.089984-21.673984-106.493952-23.77216-68.952064-3.595264-140.25728 12.360704-141.688832 88.435712C232.111104 576.730112 232.111104 578.156544 232.58624 579.581952zM462.225408 881.491968C135.646208 701.668352 175.055872 600.493056 175.055872 191.138816c98.895872-30.430208 210.62144-59.4432 338.531328-65.62304 131.697664 13.786112 228.687872 34.233344 336.144384 65.62304 0.474112 429.80864 43.413504 514.203648-284.322816 690.353152C525.125632 903.156736 501.758976 903.254016 462.225408 881.491968zM121.322496 140.253184c0 474.038272-45.93664 592.080896 332.821504 799.730688 45.362176 24.863744 72.810496 25.734144 119.821312 0.477184 379.49952-203.936768 330.437632-302.396416 329.491456-800.207872C778.891264 103.169024 666.19904 80.830464 514.061312 64.18432c-74.657792 3.80416-144.541696 12.843008-209.205248 27.572224C240.193536 106.494976 178.857984 122.67008 121.322496 140.253184zM947.2 859.63264" /></svg>