<?xml version="1.0" standalone="no"?><!DOCTYPE svg PUBLIC "-//W3C//DTD SVG 1.1//EN" "http://www.w3.org/Graphics/SVG/1.1/DTD/svg11.dtd"><svg class="icon" width="200px" height="200.00px" viewBox="0 0 1024 1024" version="1.1" xmlns="http://www.w3.org/2000/svg">
<path d="M512 957.155556c-12.8 0-25.6-4.266667-36.977778-12.8C460.8 932.977778 142.222222 705.422222 142.222222 512V197.688889c0-24.177778 17.066667-46.933333 42.666667-52.622222l312.888889-86.755556c9.955556-2.844444 19.911111-2.844444 29.866666 0l312.888889 86.755556c24.177778 7.111111 41.244444 28.444444 41.244445 52.622222V512c0 193.422222-318.577778 420.977778-332.8 432.355556-11.377778 8.533333-24.177778 12.8-36.977778 12.8zM199.111111 199.111111v312.888889c0 137.955556 226.133333 315.733333 312.888889 388.266667l18.488889 21.333333-18.488889-21.333333c86.755556-72.533333 312.888889-250.311111 312.888889-388.266667V199.111111L512 113.777778l-312.888889 85.333333z"  />
<!-- <path fill="#515151" d="M381.881 206.083c51.648 14.793 79.335 24.915 83.054 30.451 0 3.723-3.719 8.306-11.072 13.845-11.075 7.396-18.473 14.793-22.149 22.146-60.906 112.601-125.533 206.73-193.794 282.388-25.867-16.611-48.923-26.734-69.212-30.453 95.944-73.799 167.017-179.953 213.173-318.377z m83.054 224.247c49.834 22.148 76.566 34.174 80.287 35.991 0 3.72-2.77 7.397-8.306 11.074-12.935 9.257-23.1 20.33-30.453 33.221-59.09 94.129-109.832 167.971-152.268 221.479 35.038-1.816 94.129-5.537 177.184-11.073 35.039 0 68.261-1.817 99.666-5.538-14.794-29.502-36.942-64.584-66.443-105.202l55.368-30.454c38.761 55.371 84.871 125.535 138.426 210.406l-71.981 30.453c-3.72-12.935-12.024-30.453-24.915-52.601 1.815 1.816 0.908 0-2.769-5.538-195.654 5.538-322.098 16.611-379.283 33.223l-19.38-60.907c70.119-42.435 138.424-143.961 204.867-304.534z m149.499-227.017c38.759 138.424 119.045 237.184 240.859 296.229-25.868 11.073-48.926 27.685-69.212 49.832-114.461-86.731-191.979-197.47-232.554-332.219l60.907-13.842z"  /> -->
<path d="M469.333333 853.333333h85.333334v-85.333333h-85.333334v85.333333z m85.333334-128V170.666667h-85.333334v554.666666h85.333334z"  />
<!-- <path d="M448 571.733333l-122.311111-133.688889c-9.955556-11.377778-9.955556-29.866667 1.422222-39.822222 11.377778-9.955556 29.866667-9.955556 39.822222 1.422222l93.866667 103.822223c5.688889 5.688889 14.222222 5.688889 19.911111 1.422222L684.088889 312.888889c11.377778-11.377778 29.866667-9.955556 39.822222 1.422222 11.377778 11.377778 9.955556 29.866667-1.422222 39.822222L490.666667 574.577778c-11.377778 11.377778-31.288889 9.955556-42.666667-2.844445z" fill="#ffc43c" /> -->
</svg>