<?xml version="1.0" standalone="no"?><!DOCTYPE svg PUBLIC "-//W3C//DTD SVG 1.1//EN" "http://www.w3.org/Graphics/SVG/1.1/DTD/svg11.dtd"><svg class="icon" width="200px" height="200.00px" viewBox="0 0 1024 1024" version="1.1" xmlns="http://www.w3.org/2000/svg"><path d="M512.660032 146.646941l408.005484 0c14.57188 0 21.85782 10.92891 21.85782 21.85782l0 0L942.523337 383.435902c0 10.92891-7.28594 18.21485-21.85782 18.21485l0 0L512.660032 401.650753 512.660032 361.578082l389.790634 0L902.450666 190.361559 512.660032 190.361559 512.660032 146.646941 512.660032 146.646941zM512.660032 867.942735l0-43.714617 131.144876 0L643.804908 540.080545 512.660032 540.080545l0-43.714617 153.001673 0c10.92891 0 21.85782 7.28594 21.85782 21.85782l0 0 0 306.004369 112.930025 0L800.449551 449.00834c0-10.92891 7.28594-21.85782 21.85782-21.85782 10.92891 0 18.21485 10.92891 18.21485 21.85782l0 397.076574c0 14.57188-7.28594 21.85782-18.21485 21.85782l0 0L512.660032 867.942735zM101.011578 146.646941 512.660032 146.646941l0 43.714617L122.869399 190.361559 122.869399 361.578082 512.660032 361.578082l0 40.071647L101.011578 401.649729c-10.92891 0-21.85782-7.28594-21.85782-18.21485L79.153758 168.504762C79.153758 157.575852 90.082668 146.646941 101.011578 146.646941L101.011578 146.646941zM512.660032 496.365928l0 43.714617L381.515157 540.080545l0 284.146549L512.660032 824.227094l0 43.714617L203.012693 867.941712c-10.92891 0-21.85782-7.28594-21.85782-21.85782l0 0L181.154873 449.00834c0-10.92891 10.92891-21.85782 21.85782-21.85782s21.85782 10.92891 21.85782 21.85782l0 375.219777 112.930025 0L337.800539 518.223748c0-14.57188 10.92891-21.85782 21.85782-21.85782L512.660032 496.365928z" /></svg>