<svg class="icon" width="200" height="200" viewBox="0 0 1024 1024" xmlns="http://www.w3.org/2000/svg"><path d="M673.087 456.273c26.571 26.554 69.632 26.554 96.202 0l105.807-105.807c26.571-26.554 26.571-69.63 0-96.186L769.29 148.474c-26.57-26.587-69.63-26.587-96.202 0L567.28 254.28c-26.554 26.554-26.554 69.631 0 96.186l105.807 105.807zM606.89 285.016l96.95-96.932c9.723-9.759 25.517-9.759 35.241 0l96.933 96.932c9.742 9.725 9.742 25.5 0 35.224l-96.933 96.966c-9.724 9.725-25.518 9.725-35.24 0L606.89 320.24c-9.725-9.723-9.725-25.5 0-35.224zm201.55 261.288H634.362c-48.058 0-87.023 38.964-87.023 87.04v174.078c0 48.042 38.965 87.04 87.023 87.04H808.44c48.074 0 87.04-38.997 87.04-87.04v-174.08c0-48.074-38.965-87.038-87.04-87.038zm34.832 261.117c0 19.21-15.589 34.815-34.832 34.815H634.362c-19.21 0-34.816-15.605-34.816-34.815V633.343c0-19.244 15.606-34.815 34.816-34.815H808.44c19.243 0 34.832 15.572 34.832 34.815V807.42zM390.668 546.304H216.574c-48.058 0-87.031 38.964-87.031 87.04v174.078c0 48.042 38.973 87.04 87.031 87.04h174.094c48.059 0 87.023-38.997 87.023-87.04v-174.08c0-48.074-38.964-87.038-87.023-87.038zm34.8 261.117c0 19.21-15.58 34.815-34.8 34.815H216.574c-19.218 0-34.809-15.605-34.809-34.815V633.343c0-19.244 15.59-34.815 34.81-34.815h174.093c19.22 0 34.8 15.572 34.8 34.815V807.42zm-34.8-678.905H216.574c-48.058 0-87.031 38.963-87.031 87.04v174.078c0 48.042 38.973 87.04 87.031 87.04h174.094c48.059 0 87.023-38.998 87.023-87.04V215.555c0-48.076-38.964-87.039-87.023-87.039zm34.8 261.118c0 19.21-15.58 34.816-34.8 34.816H216.574c-19.218 0-34.809-15.605-34.809-34.816V215.555c0-19.243 15.59-34.815 34.81-34.815h174.093c19.22 0 34.8 15.572 34.8 34.815v174.08z"/></svg>