<?xml version="1.0" standalone="no"?><!DOCTYPE svg PUBLIC "-//W3C//DTD SVG 1.1//EN" "http://www.w3.org/Graphics/SVG/1.1/DTD/svg11.dtd"><svg class="icon" width="200px" height="184.84px" viewBox="0 0 1108 1024" version="1.1" xmlns="http://www.w3.org/2000/svg"><path d="M915.768 263.696v621.184a72.832 72.832 0 0 1-72.848 72.848H191.424a72.784 72.784 0 0 1-72.84-72.848V263.696"/><path d="M516.144 957.736h326.776a72.832 72.832 0 0 0 72.848-72.848V263.696H516.144v694.04z" /><path d="M713.336 480.896a57.712 57.712 0 0 1-57.68 57.72H378.68a57.752 57.752 0 0 1-57.736-57.72c0-31.872 25.872-57.672 57.736-57.672h276.976a57.656 57.656 0 0 1 57.68 57.672z" /><path d="M996.888 278.608v-65.824c0-44.16-35.808-79.968-80.008-79.968H117.4c-44.208 0-80.016 35.808-80.016 79.968v65.824h959.504z"/><path d="M916.88 132.824H516.144v145.784h480.752v-65.824c-0.008-44.16-35.808-79.96-80.016-79.96z"/><path d="M655.656 423.224H516.144v115.392h139.512a57.704 57.704 0 0 0 57.68-57.72 57.656 57.656 0 0 0-57.68-57.672z" /></svg>