<svg class="icon" viewBox="0 0 1024 1024" xmlns="http://www.w3.org/2000/svg" width="200" height="200"><defs><style/></defs><path d="M771.544 169.44a454.738 454.738 0 0 1 80.955 73.26 478.692 478.692 0 0 1 60.637 88.408 436.306 436.306 0 0 1 38.448 100.545 445.4 445.4 0 0 1 13.262 107.631q0 93.975-35.923 176.345T831.77 859.107q-61.245 61.139-143.722 96.985T511.476 992q-93.092 0-175.554-35.877a468.426 468.426 0 0 1-144.208-97 449.948 449.948 0 0 1-97.153-143.494q-35.42-82.355-35.42-176.345a439.408 439.408 0 0 1 12.638-105.091 466.403 466.403 0 0 1 35.923-98.02 432.184 432.184 0 0 1 57.686-86.902 491.467 491.467 0 0 1 76.91-72.758 64.758 64.758 0 0 1 48.06-12.167c11.163 1.444 22.675 11.695 23.68 24.105 1.672 20.79-13.095 37.246-29.749 49.93q-74.963 54.751-114.84 134.4t-39.832 171.157a372.368 372.368 0 0 0 29.748 147.995 381.737 381.737 0 0 0 81.55 121.274 389.341 389.341 0 0 0 121.334 82.05 377.174 377.174 0 0 0 296.325 0A386.421 386.421 0 0 0 862.02 691.95a365.007 365.007 0 0 0 30.28-148.01 375.653 375.653 0 0 0-42.812-175.341A370.848 370.848 0 0 0 729.34 232.48c-17.46-11.878-30.266-28.744-28.152-49.534 1.521-14.768 10.327-22.418 21.794-24.106 17.612-2.6 33.733.502 48.562 10.646z"/><path d="M501.925 32a40.242 40.242 0 0 1 40.272 40.212v402.557a40.257 40.257 0 0 1-80.499 0V72.257A40.242 40.242 0 0 1 501.925 32z"/></svg>