<svg class="icon" viewBox="0 0 1024 1024" xmlns="http://www.w3.org/2000/svg" width="200" height="200"><defs><style/></defs><path d="M391.837 475.429H177.633c-45.976 0-83.592-37.617-83.592-83.592V177.633c0-45.976 37.616-83.592 83.592-83.592h214.204c45.975 0 83.592 37.616 83.592 83.592v214.204c0 45.975-37.617 83.592-83.592 83.592zM177.633 135.837c-22.988 0-41.796 18.808-41.796 41.796v214.204c0 22.987 18.808 41.796 41.796 41.796h214.204c22.987 0 41.796-18.809 41.796-41.796V177.633c0-22.988-18.809-41.796-41.796-41.796H177.633zM391.837 929.96H177.633c-45.976 0-83.592-37.617-83.592-83.593V632.163c0-45.975 37.616-83.592 83.592-83.592h214.204c45.975 0 83.592 37.617 83.592 83.592v214.204c0 45.976-37.617 83.592-83.592 83.592zM177.633 590.366c-22.988 0-41.796 18.809-41.796 41.796v214.204c0 22.988 18.808 41.796 41.796 41.796h214.204c22.987 0 41.796-18.808 41.796-41.796V632.163c0-22.987-18.809-41.796-41.796-41.796H177.633zM846.367 929.96H632.163c-45.975 0-83.592-37.617-83.592-83.593V632.163c0-45.975 37.617-83.592 83.592-83.592h214.204c45.976 0 83.592 37.617 83.592 83.592v214.204c0 45.976-37.616 83.592-83.592 83.592zM632.163 590.366c-22.987 0-41.796 18.809-41.796 41.796v214.204c0 22.988 18.809 41.796 41.796 41.796h214.204c22.988 0 41.796-18.808 41.796-41.796V632.163c0-22.987-18.808-41.796-41.796-41.796H632.163zM739.265 475.429c-105.012 0-190.694-85.682-190.694-190.694S634.253 94.04 739.265 94.04 929.96 179.722 929.96 284.735s-85.681 190.694-190.694 190.694zm0-339.592c-82.024 0-148.898 66.873-148.898 148.898s66.874 148.898 148.898 148.898 148.898-66.874 148.898-148.898-66.873-148.898-148.898-148.898z"/></svg>