<?xml version="1.0" standalone="no"?><!DOCTYPE svg PUBLIC "-//W3C//DTD SVG 1.1//EN" "http://www.w3.org/Graphics/SVG/1.1/DTD/svg11.dtd"><svg class="icon" width="200px" height="200.00px" viewBox="0 0 1024 1024" version="1.1" xmlns="http://www.w3.org/2000/svg"><path d="M537.28 37.728l288 78.528A96 96 0 0 1 896 208.896v319.168c0 140.48-71.616 271.232-189.984 346.88L547.968 976a64 64 0 0 1-68.704 0.128l-159.616-101.12A412.32 412.32 0 0 1 128 526.72V208.896a96 96 0 0 1 70.72-92.64l288-78.528a96 96 0 0 1 50.56 0z m-16.864 61.76a32 32 0 0 0-16.832 0l-288 78.528A32 32 0 0 0 192 208.896v317.824c0 119.36 61.12 230.4 161.92 294.24l159.584 101.12 158.08-101.056A347.744 347.744 0 0 0 832 528.064V208.896a32 32 0 0 0-23.584-30.88l-288-78.56z" /><path d="M381.881 206.083c51.648 14.793 79.335 24.915 83.054 30.451 0 3.723-3.719 8.306-11.072 13.845-11.075 7.396-18.473 14.793-22.149 22.146-60.906 112.601-125.533 206.73-193.794 282.388-25.867-16.611-48.923-26.734-69.212-30.453 95.944-73.799 167.017-179.953 213.173-318.377z m83.054 224.247c49.834 22.148 76.566 34.174 80.287 35.991 0 3.72-2.77 7.397-8.306 11.074-12.935 9.257-23.1 20.33-30.453 33.221-59.09 94.129-109.832 167.971-152.268 221.479 35.038-1.816 94.129-5.537 177.184-11.073 35.039 0 68.261-1.817 99.666-5.538-14.794-29.502-36.942-64.584-66.443-105.202l55.368-30.454c38.761 55.371 84.871 125.535 138.426 210.406l-71.981 30.453c-3.72-12.935-12.024-30.453-24.915-52.601 1.815 1.816 0.908 0-2.769-5.538-195.654 5.538-322.098 16.611-379.283 33.223l-19.38-60.907c70.119-42.435 138.424-143.961 204.867-304.534z m149.499-227.017c38.759 138.424 119.045 237.184 240.859 296.229-25.868 11.073-48.926 27.685-69.212 49.832-114.461-86.731-191.979-197.47-232.554-332.219l60.907-13.842z"  /></svg>