<svg class="icon" viewBox="0 0 1024 1024" xmlns="http://www.w3.org/2000/svg" width="128" height="128"><defs><style/></defs><path d="M537.6 537.6c6.4-6.4 6.4-19.2 6.4-25.6s0-19.2-6.4-25.6l-224-224c-12.8-6.4-38.4-6.4-51.2 0s-6.4 38.4 0 51.2L467.2 512 268.8 710.4c-12.8 12.8-12.8 32 0 44.8s32 12.8 44.8 0l224-217.6z"/><path d="M486.4 313.6L691.2 512 492.8 710.4c-12.8 12.8-12.8 32 0 44.8s32 12.8 44.8 0l224-224c6.4 0 6.4-12.8 6.4-19.2s0-19.2-6.4-25.6l-224-224c-12.8-6.4-38.4-6.4-51.2 0s-6.4 38.4 0 51.2z"/></svg>