<svg class="icon" width="200" height="200" viewBox="0 0 1024 1024" xmlns="http://www.w3.org/2000/svg"><path d="M932.091 205.248H587.687c-12.998 0-23.534-10.536-23.534-23.533s10.536-23.534 23.534-23.534H932.09c12.998 0 23.534 10.536 23.534 23.534s-10.536 23.533-23.534 23.533zm0 172.46H587.687c-12.998 0-23.534-10.537-23.534-23.535s10.536-23.533 23.534-23.533H932.09c12.998 0 23.534 10.536 23.534 23.533s-10.536 23.534-23.534 23.534zm0 314.756H587.687c-12.998 0-23.534-10.536-23.534-23.534s10.536-23.534 23.534-23.534H932.09c12.998 0 23.534 10.536 23.534 23.534s-10.536 23.534-23.534 23.534zm0 172.459H587.687c-12.998 0-23.534-10.537-23.534-23.534s10.536-23.534 23.534-23.534H932.09c12.998 0 23.534 10.536 23.534 23.534s-10.536 23.534-23.534 23.534zm-541.547-399.95H146.919c-41.763 0-75.74-33.977-75.74-75.74V145.609c0-41.763 33.977-75.739 75.74-75.739h243.625c41.763 0 75.738 33.977 75.738 75.739v243.625c.001 41.763-33.975 75.74-75.738 75.74zM146.919 116.937c-15.81 0-28.673 12.862-28.673 28.67v243.626c0 15.81 12.863 28.67 28.673 28.67h243.625c15.81 0 28.67-12.861 28.67-28.67V145.608c0-15.81-12.862-28.671-28.67-28.671H146.919zM390.544 954.13H146.919c-41.763 0-75.74-33.977-75.74-75.739V634.766c0-41.762 33.977-75.739 75.74-75.739h243.625c41.763 0 75.738 33.977 75.738 75.74v243.625c.001 41.762-33.975 75.739-75.738 75.739zM146.919 606.095c-15.81 0-28.673 12.862-28.673 28.671v243.626c0 15.81 12.863 28.671 28.673 28.671h243.625c15.81 0 28.67-12.862 28.67-28.67V634.765c0-15.81-12.862-28.671-28.67-28.671H146.919z"/></svg>