<svg class="icon" viewBox="0 0 1024 1024" xmlns="http://www.w3.org/2000/svg" width="200" height="200"><defs><style/></defs><path d="M881.152 416l-94.288-32v544H221.152V384l-94.288 32L64 224 252.576 96s41.872-.576 101.424 0c9.712 9.504 104.16 80 158 80 56.208 0 148.8-80 151.008-80h92.432L944 224zM736.4 160h-75.2c-35.504 34.848-70.4 80-157.136 80s-123.2-46.16-157.136-80h-75.2l-130.432 88.448 21.904 87.76 38.048-12.912a61.904 61.904 0 0 1 56.64 8.8A64.384 64.384 0 0 1 284 384v480h440V384a64.384 64.384 0 0 1 26.096-51.92 61.904 61.904 0 0 1 56.64-8.8l38.064 12.928 21.904-87.76z"/></svg>