<svg class="icon" width="200" height="200" viewBox="0 0 1024 1024" xmlns="http://www.w3.org/2000/svg"><path d="M987.486 731.429C943.6 683.886 742.457 618.057 768.057 585.143c7.314-7.314 73.143-124.343 73.143-182.857 0-120.686-98.743-219.429-219.429-219.429S402.343 281.6 402.343 402.286c0 58.514 65.828 175.543 73.143 182.857 25.6 32.914-175.543 98.743-219.429 146.286-43.886 47.542-36.571 182.857-36.571 182.857h804.571s7.314-135.315-36.571-182.857zM658.343 841.143H292.628c3.658-29.257 7.315-51.2 14.63-58.514 10.97-10.972 62.17-36.572 91.428-51.2 87.771-43.886 138.971-69.486 149.942-124.343 3.658-21.943 0-47.543-14.628-65.829-18.286-25.6-58.514-109.714-58.514-138.971C475.486 321.829 541.314 256 621.77 256s146.286 65.829 146.286 146.286c0 29.257-40.229 113.371-58.514 138.971-14.629 18.286-18.286 43.886-14.629 65.829 10.972 54.857 62.172 80.457 149.943 124.343 29.257 14.628 80.457 40.228 91.429 51.2 7.314 7.314 10.971 32.914 14.628 58.514H658.343z"/><path d="M201.2 588.8c84.114-40.229 124.343-62.171 128-98.743 3.657-14.628 0-29.257-7.314-36.571-10.972-14.629-65.829-117.029-65.829-160.915 0-102.4 80.457-182.857 182.857-182.857 25.6 0 58.514 0 84.114 25.6l51.2-51.2c-47.542-47.543-106.057-47.543-135.314-47.543-142.628 0-256 113.372-256 256 0 54.858 43.886 142.629 69.486 186.515-18.286 14.628-54.857 32.914-84.114 43.885-51.2 25.6-98.743 51.2-120.686 73.143C-3.6 650.971.057 778.971.057 804.571v36.572h146.286V768H73.2c0-47.543 10.971-102.4 25.6-120.686 14.628-14.628 62.171-40.228 102.4-58.514z"/></svg>