<svg class="icon" width="200" height="200" viewBox="0 0 1024 1024" xmlns="http://www.w3.org/2000/svg"><path d="M512 946.586a92.16 92.16 0 0 1-46.08-12.288l-273.357-157.85a92.16 92.16 0 0 1-46.08-79.82v-315.65a92.467 92.467 0 0 1 46.08-79.82L465.92 143.36a92.16 92.16 0 0 1 92.16 0l273.357 157.798a92.467 92.467 0 0 1 46.08 79.821v315.648a92.16 92.16 0 0 1-46.08 79.821L558.08 934.298A92.16 92.16 0 0 1 512 946.586zm0-754.125a30.72 30.72 0 0 0-15.36 4.096l-273.357 157.85a30.72 30.72 0 0 0-15.36 26.572v315.648a30.72 30.72 0 0 0 15.36 26.624L496.64 881.05a30.72 30.72 0 0 0 30.72 0l273.357-157.8a30.72 30.72 0 0 0 15.36-26.624V380.98a30.72 30.72 0 0 0-15.36-26.573L527.36 196.556a30.72 30.72 0 0 0-15.36-4.095zm0 527.257a180.89 180.89 0 1 1 180.89-180.89A181.094 181.094 0 0 1 512 719.719zm0-300.339a119.45 119.45 0 1 0 119.45 119.45A119.552 119.552 0 0 0 512 419.379z"/></svg>