<svg class="icon" width="200" height="200" viewBox="0 0 1024 1024" xmlns="http://www.w3.org/2000/svg"><path d="M734 392c-2.064 0-4.096.048-6.128.128l-8.848 23.12a32 32 0 0 1-20.064 19.04 113.072 113.072 0 0 0-27.52 13.232 32 32 0 0 1-27.36 3.792l-23.776-7.584a153.247 153.247 0 0 0-7.552 9.424L625.36 474.4a32 32 0 0 1 2.4 27.616 111.744 111.744 0 0 0-6.752 29.632 32 32 0 0 1-14.16 23.84l-20.704 13.76a155.28 155.28 0 0 0 2.656 11.632l24.72 3.456a32 32 0 0 1 23.008 15.232 113.765 113.765 0 0 0 19.072 23.824 32 32 0 0 1 9.824 25.888l-2.112 24.688a150.416 150.416 0 0 0 10.976 5.28l18.144-17.12a32 32 0 0 1 26.224-8.464 115.216 115.216 0 0 0 30.688 0 32 32 0 0 1 26.224 8.448l18.144 17.12c3.744-1.6 7.392-3.36 10.976-5.28l-2.112-24.656a32 32 0 0 1 9.824-25.92 114.188 114.188 0 0 0 19.072-23.808 32 32 0 0 1 23.008-15.232l24.72-3.44c1.024-3.84 1.92-7.712 2.656-11.664l-20.704-13.76a32 32 0 0 1-14.16-23.824 111.744 111.744 0 0 0-6.768-29.632 32 32 0 0 1 2.416-27.616l12.608-21.248a150.672 150.672 0 0 0-7.568-9.424l-23.776 7.584a32 32 0 0 1-27.328-3.792 113.12 113.12 0 0 0-27.536-13.232 32 32 0 0 1-20.064-19.04l-8.848-23.12A156.032 156.032 0 0 0 734 392zm-34.016-61.312a216.384 216.384 0 0 1 68.032 0 32 32 0 0 1 24.864 20.176l10.736 28.096a169.195 169.195 0 0 1 14.56 7.008l28.8-9.184a32 32 0 0 1 31.2 6.784 214.656 214.656 0 0 1 42.528 53.088 32 32 0 0 1-.32 32.112l-15.328 25.84a170.078 170.078 0 0 1 3.552 15.568l25.104 16.672a32 32 0 0 1 14.224 28.704 212.32 212.32 0 0 1-15.136 66.336 32 32 0 0 1-25.232 19.664l-29.984 4.176a183.796 183.796 0 0 1-10 12.496l2.56 29.952a32 32 0 0 1-13.616 28.992 213.92 213.92 0 0 1-61.408 29.52 32 32 0 0 1-31.04-7.424l-22-20.752a180.432 180.432 0 0 1-16.16 0l-21.984 20.752a32 32 0 0 1-31.04 7.424 213.92 213.92 0 0 1-61.424-29.52 32 32 0 0 1-13.6-28.992l2.56-29.952c-3.52-4-6.864-8.16-10.016-12.48l-29.984-4.192a32 32 0 0 1-25.232-19.68 212.224 212.224 0 0 1-15.136-66.32 32 32 0 0 1 14.24-28.704l25.088-16.672c.96-5.28 2.128-10.464 3.536-15.568l-15.328-25.84a32 32 0 0 1-.32-32.112 214.64 214.64 0 0 1 42.544-53.088 32 32 0 0 1 31.2-6.784l28.8 9.168c4.72-2.544 9.584-4.88 14.56-6.992l10.72-28.096a32 32 0 0 1 24.88-20.176zm36.704 167.136a41.76 41.76 0 0 0-41.872 41.632 41.76 41.76 0 0 0 41.872 41.616 41.76 41.76 0 0 0 41.872-41.616 41.76 41.76 0 0 0-41.872-41.632zm-105.872 41.632c0-58.432 47.504-105.632 105.872-105.632s105.872 47.2 105.872 105.632-47.52 105.616-105.872 105.616c-58.368 0-105.872-47.184-105.872-105.616zM96 255.712C96 200.72 140.48 156 195.52 156h592.96c55.04 0 99.52 44.72 99.52 99.712v72.96a32 32 0 1 1-64 0v-72.96C824 235.904 808 220 788.48 220H195.52C176 220 160 235.904 160 255.712v345.056c0 19.808 16 35.728 35.52 35.728H522a32 32 0 0 1 2 63.936V812h196.352a32 32 0 1 1 0 64h-449.92a32 32 0 1 1 0-64H460V700.48H195.52c-55.04 0-99.52-44.704-99.52-99.696V255.712z"/></svg>