<svg class="icon" width="200" height="200" viewBox="0 0 1024 1024" xmlns="http://www.w3.org/2000/svg"><path d="M409.728 284.48h383.808c15.36 0 25.6-11.392 25.6-28.352s-10.24-28.352-25.6-28.352H409.728c-15.36 0-25.6 11.392-25.6 28.352-.064 16.96 10.176 28.352 25.6 28.352zm0 170.24h383.808c15.36 0 25.6-11.328 25.6-28.288s-10.24-28.352-25.6-28.352H409.728c-15.36 0-25.6 11.392-25.6 28.352-.064 16.96 10.176 28.352 25.6 28.352zm537.28 170.496h-25.536V68.608c0-42.624-28.16-68.224-66.496-68.224H335.424c-38.4 0-79.36 25.6-79.36 68.224v45.44h-102.4c-38.336 0-76.672 42.56-76.672 88V625.28h5.056c-43.52 0-81.92 31.232-81.92 68.16v261.248c0 36.928 38.4 68.16 81.92 68.16h864.96c43.52 0 76.8-31.232 76.8-68.16V693.44c.064-36.928-35.84-68.16-76.8-68.16zm-611.584-568h519.552c10.24 0 15.36 0 15.36 11.392v556.608H624.64l-5.056 19.84c-15.36 62.464-51.2 85.12-117.76 85.12-66.432 0-102.4-25.6-117.632-85.12l-5.12-19.84h-71.68V68.608c-.064-11.392 17.792-11.392 28.032-11.392zM128.192 202.048c0-11.328 15.296-31.168 25.536-31.168h102.4v454.336h-128V202.048zm818.816 763.904H82.048c-17.92 0-28.16-11.328-30.72-11.328V696.128c2.56-2.88 12.8-14.208 30.72-14.208H340.48c25.664 71.04 79.36 107.968 161.28 107.968s135.616-34.048 161.28-107.84h283.968c15.36 0 25.6 8.448 25.6 11.328v258.496c.064 5.568-10.176 14.08-25.6 14.08z"/></svg>