<?xml version="1.0" standalone="no"?><!DOCTYPE svg PUBLIC "-//W3C//DTD SVG 1.1//EN" "http://www.w3.org/Graphics/SVG/1.1/DTD/svg11.dtd"><svg class="icon" width="200px" height="200.00px" viewBox="0 0 1024 1024" version="1.1" xmlns="http://www.w3.org/2000/svg"><path d="M926.464 737.152H791.68V602.304a31.04 31.04 0 0 0-62.08 0v134.784H594.752a31.04 31.04 0 1 0 0 62.08h134.784v134.72a31.04 31.04 0 1 0 62.08 0v-134.72h134.72a31.04 31.04 0 0 0 0.128-62.016zM771.008 338.496a269.44 269.44 0 0 0-538.88 0c0 100.096 45.952 185.408 128.256 231.424-172.16 52.352-294.336 218.048-294.336 364.224a31.04 31.04 0 0 0 31.36 30.912 31.104 31.104 0 0 0 31.296-30.848c0-176.896 196.352-326.272 352.064-326.272 9.344 0 15.104 6.4 20.8 0 148.48-1.28 269.44-122.304 269.44-269.44z m-269.44 207.296a207.552 207.552 0 0 1-207.296-207.296 207.488 207.488 0 0 1 207.296-207.168 207.488 207.488 0 0 1 207.168 207.168 207.552 207.552 0 0 1-207.168 207.296z" /></svg>