<?xml version="1.0" encoding="utf-8"?>
<svg version="1.1" xmlns:xlink="http://www.w3.org/1999/xlink" width="14px" height="14px" xmlns="http://www.w3.org/2000/svg">
  <g transform="matrix(1 0 0 1 -220 -951 )">
    <path d="M 227 951  C 230.92 951  234 954.08  234 958  C 234 961.92  230.92 965  227 965  C 223.08 965  220 961.92  220 958  C 220 954.08  223.08 951  227 951  Z " fill-rule="nonzero" fill="#ffffff" stroke="none" fill-opacity="0" />
    <path d="M 227 951.5  C 230.64 951.5  233.5 954.36  233.5 958  C 233.5 961.64  230.64 964.5  227 964.5  C 223.36 964.5  220.5 961.64  220.5 958  C 220.5 954.36  223.36 951.5  227 951.5  Z " stroke-width="1" stroke="#d9d9d9" fill="none" />
  </g>
</svg>