<?xml version="1.0" encoding="utf-8"?>
<svg version="1.1" xmlns:xlink="http://www.w3.org/1999/xlink" width="610px" height="32px" xmlns="http://www.w3.org/2000/svg">
  <defs>
    <mask fill="white" id="clip164">
      <path d="M 0 28  L 0 4  C 0 1.75999999999999  1.75999999999999 0  4 0  L 606 0  C 608.24 0  610 1.75999999999999  610 4  L 610 28  C 610 30.24  608.24 32  606 32  L 53 32  L 4 32  C 1.75999999999999 32  0 30.24  0 28  Z " fill-rule="evenodd" />
    </mask>
  </defs>
  <g transform="matrix(1 0 0 1 -140 -273 )">
    <path d="M 0 28  L 0 4  C 0 1.75999999999999  1.75999999999999 0  4 0  L 606 0  C 608.24 0  610 1.75999999999999  610 4  L 610 28  C 610 30.24  608.24 32  606 32  L 53 32  L 4 32  C 1.75999999999999 32  0 30.24  0 28  Z " fill-rule="nonzero" fill="#ffffff" stroke="none" transform="matrix(1 0 0 1 140 273 )" />
    <path d="M 0 28  L 0 4  C 0 1.75999999999999  1.75999999999999 0  4 0  L 606 0  C 608.24 0  610 1.75999999999999  610 4  L 610 28  C 610 30.24  608.24 32  606 32  L 53 32  L 4 32  C 1.75999999999999 32  0 30.24  0 28  Z " stroke-width="2" stroke="#d9d9d9" fill="none" transform="matrix(1 0 0 1 140 273 )" mask="url(#clip164)" />
  </g>
</svg>